PathFileType	4	(X/Y/Z)	C:/Users/beibeiliu/ov580/test_trc/User2\sequence.21_training_dense_left.trc
DataRate	CameraRate	NumFrames	NumMarkers	Units	OrigDataRate	OrigDataStartFrame	OrigNumFrames
120	120	13	19	mm	120	1	71
Frame#	Time	ThumbCMC			ThumbMCP			ThumbIP			ThumbTip			IndexMCP			IndexPIP			IndexTip			MiddleMCP			MiddlePIP			MiddleTip			RingMCP			RingPIP			RingTip			PinkyMCP			PinkyPIP			PinkyTip			BackHand1			BackHand2			BackHand3	
		X0	Y0	Z0	X1	Y1	Z1	X2	Y2	Z2	X3	Y3	Z3	X4	Y4	Z4	X5	Y5	Z5	X6	Y6	Z6	X7	Y7	Z7	X8	Y8	Z8	X9	Y9	Z9	X10	Y10	Z10	X11	Y11	Z11	X12	Y12	Z12	X13	Y13	Z13	X14	Y14	Z14	X15	Y15	Z15	X16	Y16	Z16	X17	Y17	Z17	X18	Y18	Z18	
0	0	-232.979	14.3405	-5.66731	-224.249	9.35957	-40.0031	-225.37	12.3679	-77.1853	-251.257	22.6093	-98.5003	-253.168	76.1267	-61.469	-254.249	70.8319	-94.1122	-266.722	35.6757	-106.378	-275.337	91.275	-53.4043	-277.463	109.559	-80.8064	-281.763	123.571	-109.225	-298.255	89.076	-43.5263	-302.398	106.793	-59.9604	-305.889	124.794	-83.2666	-325.141	69.2676	-29.8726	-333.233	87.0635	-41.2854	-337.62	111.006	-50.6948	-296.502	56.9292	-1.5249	-293.451	37.6268	30.8092	-260.514	48.7366	9.25067	
1	0.00833333	-221.581	14.5575	-3.93324	-208.235	8.92325	-36.5516	-212.833	11.1335	-70.3358	-232.433	17.9234	-94.8613	-237.205	73.0276	-62.9479	-238.942	62.9534	-96.4515	-250.494	28.825	-103.562	-258.113	91.0732	-54.844	-258.101	106.628	-78.5884	-261.276	121.06	-110.522	-287.031	86.1505	-42.1881	-284.63	104.874	-61.8728	-286.641	125.845	-89.4545	-307.311	63.2286	-32.0754	-318.576	89.7677	-46.7293	-322.99	107.92	-54.2014	-286.107	52.2212	-0.512965	-281.577	39.4189	28.378	-247.796	48.1985	8.27409	
2	0.0166667	-208.143	7.94613	2.03202	-194.216	-0.62822	-27.9345	-195.142	-1.00723	-68.9457	-212.326	0.650866	-87.3694	-216.513	58.4235	-68.9055	-221.706	46.9229	-95.6325	-228.49	13.5219	-102.014	-244.565	78.7355	-56.2961	-240.566	93.4091	-85.4698	-238.711	103.476	-115.903	-266.821	73.9342	-46.1674	-268.887	95.1631	-72.4987	-270.473	109.408	-98.3209	-293.828	55.9174	-35.7044	-302.988	76.4536	-53.5397	-306.174	94.826	-66.8433	-273.108	47.5597	-2.64138	-268.564	35.6595	26.5639	-236.155	42.1951	10.3833	
3	0.025	-192.174	1.57642	2.90131	-181.972	-13.1976	-22.3366	-180.936	-23.0547	-57.1449	-195.65	-26.5189	-78.9013	-205.741	34.7696	-72.6587	-204.843	12.8969	-98.1229	-219.415	-14.3434	-96.0172	-228.934	55.5954	-64.4858	-226.681	64.9897	-99.2652	-226.894	68.759	-129.702	-253.049	55.886	-57.605	-256.238	68.5693	-84.5495	-254.453	75.824	-109.198	-276.726	36.848	-42.9672	-285.569	54.0899	-64.2319	-293.348	70.3596	-78.2567	-258.685	37.9196	-9.89212	-260.199	33.2899	23.4599	-222.163	36.7721	5.02756	
4	0.0333333	-186.728	-5.7288	10.8813	-168.374	-25.5917	-14.4998	-162.193	-44.5645	-42.8612	-178.858	-53.8291	-67.5584	-192.285	7.74621	-71.4399	-191.781	-16.6565	-93.0894	-199.441	-49.9371	-84.5451	-216.868	27.2966	-78.2805	-214.232	24.7671	-110.553	-214.353	22.7896	-136.975	-249.475	24.1231	-67.6508	-246.947	30.0696	-98.2618	-248.525	30.5024	-126.917	-273.137	10.1392	-51.1402	-275.33	16.7616	-73.9015	-285.534	30.0437	-91.2656	-251.294	22.5846	-15.3294	-247.485	25.5044	16.1329	-215.451	25.3878	-0.491033	
5	0.0416667	-180.528	-2.70445	8.868	-157.386	-20.9956	-5.74075	-147.055	-44.2684	-32.9932	-156.596	-62.5842	-52.8759	-182.77	-8.0096	-69.4166	-177.982	-40.4451	-85.2728	-176.633	-67.0587	-68.3334	-215.287	-0.926905	-82.4316	-207.48	-6.83197	-110.886	-206.626	-16.2349	-139.803	-243.581	-8.09142	-73.1768	-242.752	-10.2448	-103.569	-241.52	-14.4845	-128.464	-261.635	-21.8882	-54.3683	-265.229	-23.8635	-76.4155	-276.804	-20.0347	-98.5906	-245.745	3.41636	-17.6873	-250.789	11.3186	10.8987	-213.061	18.2973	-4.72482	
6	0.05	-182.684	14.6462	7.12676	-152.186	2.52291	-4.03698	-135.073	-19.2054	-20.8705	-136.645	-41.9087	-39.6995	-178.756	-10.7814	-73.2783	-158.884	-31.0782	-78.0442	-153.084	-57.6255	-56.1313	-211.241	-13.7639	-84.9504	-199.818	-19.6438	-109.229	-191.208	-31.7853	-140.004	-231.272	-25.4244	-72.0942	-230.359	-33.8864	-101.032	-223.676	-40.0292	-131.757	-249.033	-46.9733	-53.3518	-251.872	-53.9864	-80.4306	-258.561	-56.9215	-100.552	-242.986	-11.6641	-20.7573	-256.541	-1.78558	6.57492	-225.449	16.8712	-10.3285	
7	0.0583333	-200.17	34.874	6.00604	-165.304	35.7224	-4.00306	-134.33	22.7705	-24.2335	-125.686	-2.04454	-37.5522	-178.96	4.36837	-73.9304	-147.593	-9.13587	-73.2109	-135.363	-25.1248	-49.6005	-205.178	-13.6012	-85.2866	-191.442	-19.9381	-109.807	-173.28	-27.5129	-139.59	-219.445	-32.4121	-72.4623	-214.055	-45.3637	-99.2115	-203.643	-51.122	-124.643	-226.935	-56.9675	-52.1596	-223.501	-65.7546	-72.9386	-226.419	-76.3436	-98.9464	-240.709	-24.7628	-21.9359	-255.495	-14.624	1.95003	-235.337	17.218	-17.0071	
8	0.0666667	-218.947	44.236	-2.31246	-188.814	58.6851	-13.1958	-158.46	57.6603	-28.291	-138.806	36.979	-41.295	-187.897	19.0144	-75.502	-151.217	20.7605	-75.2201	-133.128	23.0313	-45.5753	-202.624	-9.3932	-82.6651	-183.099	-15.0768	-112.471	-165.374	-16.2635	-136.235	-204.944	-33.855	-71.1833	-194.657	-42.7328	-95.5086	-180.368	-43.4984	-123.866	-199.539	-52.415	-42.8256	-192.172	-61.1931	-66.3461	-189.139	-74.5332	-89.8864	-226.876	-26.8479	-22.1192	-246.942	-25.0954	5.77784	-241.584	8.89577	-18.0396	
9	0.075	-238.408	42.2789	-5.3993	-217.601	72.5275	-20.8661	-189.659	83.4695	-36.8955	-163.745	68.3594	-44.7966	-198.161	28.4782	-78.8802	-169.299	40.055	-81.7893	-148.985	53.5075	-55.0101	-201.324	-4.59752	-85.1089	-185.172	-2.91553	-112.096	-165.75	-1.33619	-136.035	-194.879	-25.2751	-70.5427	-181.106	-34.8554	-90.9402	-166.466	-32.5779	-119.072	-181.299	-34.291	-40.5182	-167.359	-46.8912	-64.2643	-160.001	-55.2345	-84.859	-214.904	-27.6486	-18.6037	-233.587	-29.349	4.56518	-245.143	1.95178	-18.2646	
10	0.0833333	-253.713	41.6028	-9.55692	-241.916	72.0894	-24.4779	-216.087	89.1519	-43.7458	-187.37	83.5641	-54.947	-209.378	31.8649	-80.7512	-188.927	54.5457	-85.8963	-170.652	73.8029	-60.667	-205.475	-1.22144	-86.8428	-192.621	3.32883	-112.464	-173.018	6.76906	-138.015	-188.955	-19.6113	-66.2612	-178.576	-23.0042	-91.3204	-166.376	-19.6709	-121.597	-176.437	-18.9656	-41.4823	-161.672	-27.6199	-65.0365	-151.401	-33.6334	-85.5753	-210.556	-20.8049	-16.9962	-226.19	-24.7535	6.33344	-246.285	-3.24419	-17.7204	
11	0.0916667	-260.625	41.6232	-4.19318	-258.681	76.552	-23.7454	-236.976	95.6078	-46.1353	-208.938	91.5392	-56.8319	-224.279	36.6936	-82.636	-205.338	62.426	-89.2967	-191.062	82.5357	-70.919	-215.935	3.74348	-84.1612	-202.695	7.2512	-115.427	-188.078	15.0331	-144.818	-196.275	-9.46245	-66.2326	-188.253	-11.2814	-93.7351	-175.468	-10.1456	-120.671	-180.942	-8.44475	-49.3527	-168.759	-11.6399	-68.0088	-155.395	-19.816	-91.4988	-212.567	-14.0188	-18.7387	-224.431	-20.1237	10.4618	-251.034	2.75256	-16.6235	
12	0.1	-265.722	44.835	-5.97155	-262.646	75.4749	-22.4002	-248.41	99.1171	-47.7867	-222.226	97.4073	-65.0812	-239.388	37.9725	-84.3594	-224.268	63.6088	-94.3712	-208.575	85.2452	-78.8586	-230.153	6.13188	-86.498	-218.634	9.09946	-118.188	-207.34	14.2814	-143.908	-206.185	-7.76144	-69.6161	-202.57	-8.11652	-100.274	-192.415	-5.44914	-126.905	-187.599	-3.51213	-48.7034	-179.301	-7.01735	-73.0392	-172.025	-13.3033	-100.698	-220.563	-5.50586	-20.7961	-228.739	-12.4961	13.5453	-255.205	5.18159	-10.3416	
